<svg width="256" height="104" viewBox="0 0 256 104" xmlns="http://www.w3.org/2000/svg">
    <g fill="#CBCBCB" fill-rule="evenodd">
        <path d="m110.127 65.248-1.38 10.658h4.1a2.934 2.934 0 0 0 2.899-2.531l.98-7.294c.346-2.573 2.217-4.422 4.635-4.598l2.736.018 1.084-6.517-4.252.256c-5.532.4-10.076 4.608-10.802 10.008M115.493 47.174l.526-4.174h-25.86l-.861 6.822h8.757L94.84 75.906h4.557a2.925 2.925 0 0 0 2.902-2.563l2.9-23.521h7.289a3.033 3.033 0 0 0 3.005-2.648M206.297 43l-4.01 32.906h4.112a2.926 2.926 0 0 0 2.904-2.568L213 43h-6.703zM141.344 67.163a4.646 4.646 0 0 1-4.512 3.516 4.658 4.658 0 0 1-4.656-4.65 4.658 4.658 0 0 1 4.656-4.649c2.534 0 4.617 2.053 4.654 4.581l-.142 1.202zm1.151-9.686c-2.094-1.389-4.597-1.96-7.158-1.599-4.879.688-8.575 4.858-8.77 9.774-.232 5.826 3.75 10.595 8.863 10.595 2.667 0 4.01-.792 5.053-1.64l-.18 1.3h6.31l2.399-19.754h-6.359l-.158 1.324zM47.849 67.87c-.346-1.526-.088-3.253.691-4.57.727-1.228 1.83-2.025 3.271-2.368a6.65 6.65 0 0 1 1.509-.188c.413 0 .807.049 1.182.142l-6.653 6.984zm10.874-11.306c-1.36-.856-3.172-1.512-5.385-1.512-.883 0-1.829.105-2.838.342-2.969.703-5.342 2.434-6.867 5.011-1.613 2.726-2.065 6.191-1.204 9.268.952 3.425 4.022 6.18 7.642 6.85.677.128 1.494.202 2.39.202 2.943 0 6.727-.816 9.16-3.332a2.83 2.83 0 0 0 .78-2.21 2.855 2.855 0 0 0-1.174-2.063l-2.165-1.561-.157.215c-1.528 2.108-4.161 3.467-6.217 3.269l9.798-10.282c-1.072-2.632-3.763-4.197-3.763-4.197zM182.365 67.822c-.343-1.527-.088-3.253.693-4.57.726-1.23 1.827-2.025 3.272-2.368a6.613 6.613 0 0 1 1.507-.186c.414 0 .81.047 1.18.14l-6.652 6.984zm10.877-11.307v.001c-1.907-1.195-4.686-2.006-8.225-1.168-2.968.701-5.343 2.434-6.866 5.01-1.612 2.725-2.064 6.189-1.206 9.267.953 3.425 4.024 6.178 7.644 6.85.677.127 1.493.202 2.388.202 2.943 0 6.73-.816 9.162-3.334a2.814 2.814 0 0 0 .779-2.209 2.857 2.857 0 0 0-1.173-2.061l-2.167-1.564-.157.217c-1.526 2.108-4.161 3.467-6.215 3.27l9.797-10.283c-1.072-2.634-3.76-4.198-3.76-4.198zM84.562 59.499a2.04 2.04 0 0 0 .257-2.178 2.04 2.04 0 0 0-1.857-1.168H72.769a1.53 1.53 0 0 1-1.5-1.84l.003-.007a3.253 3.253 0 0 0-3.233 2.874c-.158 1.362.14 2.47.88 3.287.738.816 1.689 1.23 2.818 1.23h3.925L66.88 72.561a2.038 2.038 0 0 0-.253 2.178 2.04 2.04 0 0 0 1.853 1.168h13.417a2.928 2.928 0 0 0 2.904-2.565l.367-2.982h-9.416l8.81-10.861zM169.206 55.518l-5.582 9.606-3.065-9.606h-8.449L162.144 77h.519l14.568-21.482z"/>
    </g>
</svg>
